<svg xmlns="http://www.w3.org/2000/svg" viewBox="0 0 512 512" width="512" height="512">
  <!-- 쉬지 못하는 비버 (guest_015) · 마음이 따뜻해진 표정 -->
  <defs><radialGradient id="headG" cx="0.42" cy="0.35" r="0.78"><stop offset="0" stop-color="#B88258"/><stop offset="1" stop-color="#8C5A36"/></radialGradient><linearGradient id="bodyG" x1="0" y1="0" x2="0" y2="1"><stop offset="0" stop-color="#D9604E"/><stop offset="1" stop-color="#B8483A"/></linearGradient></defs>

  <!-- 몸통 -->
  <path d="M 64 520 C 70 420 128 362 204 344 L 308 344 C 384 362 442 420 448 520 Z" fill="url(#bodyG)" stroke="#7A2E24" stroke-width="6" stroke-linejoin="round" stroke-linecap="round"/>
  <path d="M 150 372 L 136 520" fill="none" stroke="#8A3428" stroke-width="6" stroke-linejoin="round" stroke-linecap="round" opacity="0.6"/><path d="M 200 372 L 186 520" fill="none" stroke="#8A3428" stroke-width="6" stroke-linejoin="round" stroke-linecap="round" opacity="0.6"/><path d="M 312 372 L 298 520" fill="none" stroke="#8A3428" stroke-width="6" stroke-linejoin="round" stroke-linecap="round" opacity="0.6"/><path d="M 362 372 L 348 520" fill="none" stroke="#8A3428" stroke-width="6" stroke-linejoin="round" stroke-linecap="round" opacity="0.6"/><path d="M 84 410 L 428 410" fill="none" stroke="#8A3428" stroke-width="6" stroke-linejoin="round" stroke-linecap="round" opacity="0.5"/><path d="M 84 452 L 428 452" fill="none" stroke="#8A3428" stroke-width="6" stroke-linejoin="round" stroke-linecap="round" opacity="0.5"/><path d="M 208 342 L 250 354 L 232 382 Z" fill="#F4EDE4" stroke="#B8A890" stroke-width="4" stroke-linejoin="round" stroke-linecap="round"/><path d="M 304 342 L 262 354 L 280 382 Z" fill="#F4EDE4" stroke="#B8A890" stroke-width="4" stroke-linejoin="round" stroke-linecap="round"/>
  <ellipse cx="256" cy="338" rx="74" ry="14" fill="#000000" opacity="0.17"/>

  <!-- 귀·뒤쪽 -->
  <circle cx="160" cy="138" r="26" fill="#9A6A44" stroke="#5E3A22" stroke-width="5"/><g transform="translate(512 0) scale(-1 1)"><circle cx="160" cy="138" r="26" fill="#9A6A44" stroke="#5E3A22" stroke-width="5"/></g>

  <!-- 머리 -->
  <ellipse cx="256" cy="220" rx="130" ry="118" fill="url(#headG)" stroke="#5E3A22" stroke-width="6"/>
  <ellipse cx="256" cy="268" rx="62" ry="44" fill="#E8C9A4" stroke="#B8916A" stroke-width="3"/><path d="M 236 242 Q 256 232 276 242 Q 274 260 256 264 Q 238 260 236 242 Z" fill="#2B1C14"/><ellipse cx="249" cy="243" rx="7" ry="3" fill="#FFFFFF" opacity="0.55"/>

  <!-- 표정 -->
  <path d="M 183 184 Q 203 172 223 184" fill="none" stroke="#5E3A22" stroke-width="6" stroke-linejoin="round" stroke-linecap="round"/><path d="M 329 184 Q 309 172 289 184" fill="none" stroke="#5E3A22" stroke-width="6" stroke-linejoin="round" stroke-linecap="round"/><path d="M 186 218 Q 203 198 220 218" fill="none" stroke="#2B1C14" stroke-width="7" stroke-linejoin="round" stroke-linecap="round"/><path d="M 292 218 Q 309 198 326 218" fill="none" stroke="#2B1C14" stroke-width="7" stroke-linejoin="round" stroke-linecap="round"/><path d="M 256 264 L 256 274" fill="none" stroke="#3B2619" stroke-width="4" stroke-linejoin="round" stroke-linecap="round"/><path d="M 236 276 Q 246 291 256 278 Q 266 291 276 276" fill="none" stroke="#3B2619" stroke-width="4" stroke-linejoin="round" stroke-linecap="round"/><ellipse cx="168" cy="262" rx="18" ry="10" fill="#E8968A" opacity="0.72"/><ellipse cx="344" cy="262" rx="18" ry="10" fill="#E8968A" opacity="0.72"/>
  <path d="M 245 286 L 256 286 L 256 304 Q 250 306 245 302 Z M 256 286 L 267 286 L 267 302 Q 262 306 256 304 Z" fill="#FFFDF5" stroke="#8C6B50" stroke-width="2.5" stroke-linejoin="round" stroke-linecap="round"/>
  <path d="M 150 146 Q 152 66 256 62 Q 360 66 362 146 Z" fill="#F2C14E" stroke="#A88220" stroke-width="6" stroke-linejoin="round" stroke-linecap="round"/><path d="M 128 148 Q 256 130 384 148 Q 386 166 370 168 Q 256 154 142 168 Q 126 166 128 148 Z" fill="#F2C14E" stroke="#A88220" stroke-width="5" stroke-linejoin="round" stroke-linecap="round"/><path d="M 256 64 L 256 140" fill="none" stroke="#A88220" stroke-width="4" stroke-linejoin="round" stroke-linecap="round" opacity="0.5"/>

  <!-- 기분 -->
  <path d="M 96 195.6 Q 98.7 207.3 110.4 210 Q 98.7 212.7 96 224.4 Q 93.3 212.7 81.6 210 Q 93.3 207.3 96 195.6 Z" fill="#FFD86B" stroke="#E0A93A" stroke-width="2" stroke-linejoin="round" stroke-linecap="round"/><path d="M 420 217.2 Q 422.4 227.6 432.8 230 Q 422.4 232.4 420 242.8 Q 417.6 232.4 407.2 230 Q 417.6 227.6 420 217.2 Z" fill="#FFD86B" stroke="#E0A93A" stroke-width="2" stroke-linejoin="round" stroke-linecap="round"/>
</svg>
