<svg xmlns="http://www.w3.org/2000/svg" viewBox="0 0 512 512" width="512" height="512">
  <!-- 짐을 도맡은 코끼리 (guest_017) -->
  <defs><radialGradient id="headG" cx="0.42" cy="0.35" r="0.78"><stop offset="0" stop-color="#BCC6D6"/><stop offset="1" stop-color="#94A0B6"/></radialGradient><linearGradient id="bodyG" x1="0" y1="0" x2="0" y2="1"><stop offset="0" stop-color="#E0B158"/><stop offset="1" stop-color="#BC8730"/></linearGradient></defs>

  <!-- 몸통 -->
  <path d="M 64 520 C 70 420 128 362 204 344 L 308 344 C 384 362 442 420 448 520 Z" fill="url(#bodyG)" stroke="#7A561A" stroke-width="6" stroke-linejoin="round" stroke-linecap="round"/>
  <path d="M 184 346 Q 256 398 328 346 L 316 338 Q 256 382 196 338 Z" fill="#F2E1B8" stroke="#7A561A" stroke-width="4" stroke-linejoin="round" stroke-linecap="round"/><path d="M 186 352 L 168 520 M 326 352 L 344 520" fill="none" stroke="#9A6E24" stroke-width="8" stroke-linejoin="round" stroke-linecap="round" opacity="0.6"/>
  <ellipse cx="256" cy="338" rx="74" ry="14" fill="#000000" opacity="0.17"/>

  <!-- 귀·뒤쪽 -->
  <path d="M 160 150 C 70 108 20 200 44 282 C 64 348 142 348 170 300 Z" fill="#A9B4C6" stroke="#5E6A80" stroke-width="6" stroke-linejoin="round" stroke-linecap="round"/><path d="M 150 172 C 92 150 64 214 80 266 C 96 306 138 300 156 282 Z" fill="#E8C4CC"/><g transform="translate(512 0) scale(-1 1)"><path d="M 160 150 C 70 108 20 200 44 282 C 64 348 142 348 170 300 Z" fill="#A9B4C6" stroke="#5E6A80" stroke-width="6" stroke-linejoin="round" stroke-linecap="round"/><path d="M 150 172 C 92 150 64 214 80 266 C 96 306 138 300 156 282 Z" fill="#E8C4CC"/></g>

  <!-- 머리 -->
  <ellipse cx="256" cy="220" rx="130" ry="118" fill="url(#headG)" stroke="#5E6A80" stroke-width="6"/>
  <path d="M 226 232 Q 222 300 236 338 Q 250 372 288 362 Q 302 356 294 342 Q 272 350 266 330 Q 260 300 286 232 Z" fill="url(#headG)" stroke="#5E6A80" stroke-width="6" stroke-linejoin="round" stroke-linecap="round"/><path d="M 238 268 q 18 6 36 0 M 238 292 q 16 6 32 0" fill="none" stroke="#7A869C" stroke-width="3.5" stroke-linejoin="round" stroke-linecap="round"/>

  <!-- 표정 -->
  <path d="M 183 180 Q 203 176 219 166" fill="none" stroke="#5E6A80" stroke-width="6" stroke-linejoin="round" stroke-linecap="round"/><path d="M 329 180 Q 309 176 293 166" fill="none" stroke="#5E6A80" stroke-width="6" stroke-linejoin="round" stroke-linecap="round"/><path d="M 186 202 A 17 15 0 0 0 220 202 Z" fill="#2B1C14"/><circle cx="208" cy="207" r="3.4" fill="#FFFFFF"/><path d="M 182 201 Q 203 195 224 202" fill="none" stroke="#3B2619" stroke-width="5.5" stroke-linejoin="round" stroke-linecap="round"/><path d="M 292 202 A 17 15 0 0 0 326 202 Z" fill="#2B1C14"/><circle cx="314" cy="207" r="3.4" fill="#FFFFFF"/><path d="M 288 201 Q 309 195 330 202" fill="none" stroke="#3B2619" stroke-width="5.5" stroke-linejoin="round" stroke-linecap="round"/><ellipse cx="170" cy="252" rx="18" ry="10" fill="#E8968A" opacity="0.45"/><ellipse cx="342" cy="252" rx="18" ry="10" fill="#E8968A" opacity="0.45"/>

  <!-- 기분 -->
  <path d="M 386 336 L 446 336 L 446 376 L 386 376 Z" fill="#C9A06A" stroke="#8A6A3A" stroke-width="4" stroke-linejoin="round" stroke-linecap="round"/><path d="M 416 336 L 416 376" fill="none" stroke="#A8865A" stroke-width="4" stroke-linejoin="round" stroke-linecap="round"/><path d="M 394 298 L 444 298 L 444 336 L 394 336 Z" fill="#D9B27A" stroke="#8A6A3A" stroke-width="4" stroke-linejoin="round" stroke-linecap="round"/><path d="M 419 298 L 419 336" fill="none" stroke="#A8865A" stroke-width="4" stroke-linejoin="round" stroke-linecap="round"/><path d="M 400 264 L 440 264 L 440 298 L 400 298 Z" fill="#E6C48E" stroke="#8A6A3A" stroke-width="4" stroke-linejoin="round" stroke-linecap="round"/><path d="M 420 264 L 420 298" fill="none" stroke="#A8865A" stroke-width="4" stroke-linejoin="round" stroke-linecap="round"/><path d="M 108 156 Q 120 172 116 182 A 10 10 0 0 1 98 178 Q 98 170 108 156 Z" fill="#A9DBF3" stroke="#5E9FC2" stroke-width="3" stroke-linejoin="round" stroke-linecap="round"/>
</svg>
