<svg xmlns="http://www.w3.org/2000/svg" viewBox="0 0 512 512" width="512" height="512">
  <!-- 가시가 많은 고슴도치 (guest_009) -->
  <defs><radialGradient id="headG" cx="0.42" cy="0.35" r="0.78"><stop offset="0" stop-color="#F1DDBE"/><stop offset="1" stop-color="#DCC09A"/></radialGradient><linearGradient id="bodyG" x1="0" y1="0" x2="0" y2="1"><stop offset="0" stop-color="#A8CFA6"/><stop offset="1" stop-color="#86B686"/></linearGradient></defs>

  <!-- 몸통 -->
  <path d="M 64 520 C 70 420 128 362 204 344 L 308 344 C 384 362 442 420 448 520 Z" fill="url(#bodyG)" stroke="#4E7A52" stroke-width="6" stroke-linejoin="round" stroke-linecap="round"/>
  <path d="M 184 346 Q 256 398 328 346 L 316 338 Q 256 382 196 338 Z" fill="#D7EBD2" stroke="#4E7A52" stroke-width="4" stroke-linejoin="round" stroke-linecap="round"/>
  <ellipse cx="256" cy="338" rx="74" ry="14" fill="#000000" opacity="0.17"/>

  <!-- 귀·뒤쪽 -->
  <path d="M 109.6 264.8 L 46.1 255.4 L 104.8 231.2 L 45.7 207.9 L 108.9 197.5 L 57.6 161.7 L 121.7 165.7 L 81.2 119.5 L 142.4 137.6 L 115.0 83.8 L 169.7 115.0 L 157.1 56.7 L 202.1 99.2 L 205.1 39.8 L 237.7 91.0 L 256.0 34.0 L 274.3 91.0 L 306.9 39.8 L 309.9 99.2 L 354.9 56.7 L 342.3 115.0 L 397.0 83.8 L 369.6 137.6 L 430.8 119.5 L 390.3 165.7 L 454.4 161.7 L 403.1 197.5 L 466.3 207.9 L 407.2 231.2 L 465.9 255.4 L 402.4 264.8 L 256 260 Z" fill="#8B6A4E" stroke="#5A4030" stroke-width="6" stroke-linejoin="round" stroke-linecap="round"/><circle cx="170" cy="136" r="22" fill="#E7C9A3" stroke="#7A5A40" stroke-width="5"/><g transform="translate(512 0) scale(-1 1)"><circle cx="170" cy="136" r="22" fill="#E7C9A3" stroke="#7A5A40" stroke-width="5"/></g>

  <!-- 머리 -->
  <ellipse cx="256" cy="222" rx="124" ry="112" fill="url(#headG)" stroke="#7A5A40" stroke-width="6"/>
  <ellipse cx="256" cy="264" rx="42" ry="32" fill="#F8EBD6" stroke="#D6B994" stroke-width="3"/><circle cx="256" cy="246" r="12" fill="#2B1C14"/><circle cx="252" cy="242" r="3.5" fill="#FFFFFF"/>

  <!-- 표정 -->
  <path d="M 183 188 Q 203 184 219 174" fill="none" stroke="#7A5A40" stroke-width="6" stroke-linejoin="round" stroke-linecap="round"/><path d="M 329 188 Q 309 184 293 174" fill="none" stroke="#7A5A40" stroke-width="6" stroke-linejoin="round" stroke-linecap="round"/><ellipse cx="203" cy="214" rx="14" ry="16" fill="#2B1C14"/><circle cx="207" cy="209" r="4.6" fill="#FFFFFF"/><circle cx="199" cy="220" r="2" fill="#FFFFFF"/><ellipse cx="309" cy="214" rx="14" ry="16" fill="#2B1C14"/><circle cx="313" cy="209" r="4.6" fill="#FFFFFF"/><circle cx="305" cy="220" r="2" fill="#FFFFFF"/><path d="M 256 258 L 256 268" fill="none" stroke="#3B2619" stroke-width="4" stroke-linejoin="round" stroke-linecap="round"/><path d="M 241 282 Q 256 270 271 282" fill="none" stroke="#3B2619" stroke-width="4" stroke-linejoin="round" stroke-linecap="round"/><path d="M 209 234 Q 218 247 215 254 A 7.5 7.5 0 0 1 201.5 251 Q 202 245 209 234 Z" fill="#9FD8F5" stroke="#5E9FC2" stroke-width="2.5" stroke-linejoin="round" stroke-linecap="round"/><path d="M 303 234 Q 310.2 244.4 307.8 250 A 6 6 0 0 1 297 247.6 Q 297.4 242.8 303 234 Z" fill="#9FD8F5" stroke="#5E9FC2" stroke-width="2.5" stroke-linejoin="round" stroke-linecap="round"/><ellipse cx="168" cy="262" rx="18" ry="10" fill="#E8968A" opacity="0.45"/><ellipse cx="344" cy="262" rx="18" ry="10" fill="#E8968A" opacity="0.45"/>

  <!-- 기분 -->
  <path d="M 96 250 Q 106.8 264.4 103.2 273.4 A 9 9 0 0 1 87 269.8 Q 87 262.6 96 250 Z" fill="#A9DBF3" stroke="#5E9FC2" stroke-width="3" stroke-linejoin="round" stroke-linecap="round"/>
</svg>
