<svg xmlns="http://www.w3.org/2000/svg" viewBox="0 0 512 512" width="512" height="512">
  <!-- 욱하는 아기 호랑이 (guest_019) -->
  <defs><radialGradient id="headG" cx="0.42" cy="0.35" r="0.78"><stop offset="0" stop-color="#F6A851"/><stop offset="1" stop-color="#E0822C"/></radialGradient><linearGradient id="bodyG" x1="0" y1="0" x2="0" y2="1"><stop offset="0" stop-color="#94C982"/><stop offset="1" stop-color="#6BA65A"/></linearGradient></defs>

  <!-- 몸통 -->
  <path d="M 64 520 C 70 420 128 362 204 344 L 308 344 C 384 362 442 420 448 520 Z" fill="url(#bodyG)" stroke="#3E6A34" stroke-width="6" stroke-linejoin="round" stroke-linecap="round"/>
  <path d="M 184 346 Q 256 398 328 346 L 316 338 Q 256 382 196 338 Z" fill="#D6EBCB" stroke="#3E6A34" stroke-width="4" stroke-linejoin="round" stroke-linecap="round"/>
  <ellipse cx="256" cy="338" rx="74" ry="14" fill="#000000" opacity="0.17"/>

  <!-- 귀·뒤쪽 -->
  <circle cx="156" cy="132" r="36" fill="#E8903C" stroke="#8A4A1A" stroke-width="6"/><circle cx="158" cy="134" r="17" fill="#FFF1DC"/><g transform="translate(512 0) scale(-1 1)"><circle cx="156" cy="132" r="36" fill="#E8903C" stroke="#8A4A1A" stroke-width="6"/><circle cx="158" cy="134" r="17" fill="#FFF1DC"/></g>

  <!-- 머리 -->
  <ellipse cx="256" cy="220" rx="130" ry="118" fill="url(#headG)" stroke="#8A4A1A" stroke-width="6"/>
  <path d="M 248 106 L 256 142 L 264 106 Z" fill="#3E2A1A"/><path d="M 216 112 Q 226 130 218 150 M 130 210 Q 154 218 170 210 M 134 240 Q 158 246 174 238" fill="none" stroke="#3E2A1A" stroke-width="7" stroke-linejoin="round" stroke-linecap="round"/><g transform="translate(512 0) scale(-1 1)"><path d="M 216 112 Q 226 130 218 150 M 130 210 Q 154 218 170 210 M 134 240 Q 158 246 174 238" fill="none" stroke="#3E2A1A" stroke-width="7" stroke-linejoin="round" stroke-linecap="round"/></g><ellipse cx="203" cy="184" rx="18" ry="9" fill="#FFF6EA"/><g transform="translate(512 0) scale(-1 1)"><ellipse cx="203" cy="184" rx="18" ry="9" fill="#FFF6EA"/></g>
  <ellipse cx="256" cy="270" rx="64" ry="44" fill="#FFF6EA" stroke="#E2C8A8" stroke-width="3"/><path d="M 240 250 Q 256 242 272 250 Q 266 264 256 266 Q 246 264 240 250 Z" fill="#C9605A"/><path d="M 196 268 L 144 258 M 196 278 L 142 280 M 198 287 L 150 300" fill="none" stroke="#8A4A1A" stroke-width="3" stroke-linejoin="round" stroke-linecap="round" opacity="0.7"/><g transform="translate(512 0) scale(-1 1)"><path d="M 196 268 L 144 258 M 196 278 L 142 280 M 198 287 L 150 300" fill="none" stroke="#8A4A1A" stroke-width="3" stroke-linejoin="round" stroke-linecap="round" opacity="0.7"/></g>

  <!-- 표정 -->
  <path d="M 183 174 Q 203 180 221 190" fill="none" stroke="#3E2A1A" stroke-width="6" stroke-linejoin="round" stroke-linecap="round"/><path d="M 329 174 Q 309 180 291 190" fill="none" stroke="#3E2A1A" stroke-width="6" stroke-linejoin="round" stroke-linecap="round"/><ellipse cx="203" cy="214" rx="12.6" ry="14.4" fill="#2B1C14"/><circle cx="206.6" cy="209.5" r="4.14" fill="#FFFFFF"/><circle cx="199.4" cy="219.4" r="1.8" fill="#FFFFFF"/><ellipse cx="309" cy="214" rx="12.6" ry="14.4" fill="#2B1C14"/><circle cx="312.6" cy="209.5" r="4.14" fill="#FFFFFF"/><circle cx="305.4" cy="219.4" r="1.8" fill="#FFFFFF"/><path d="M 256 266 L 256 276" fill="none" stroke="#3B2619" stroke-width="4" stroke-linejoin="round" stroke-linecap="round"/><path d="M 238 288 Q 256 278 274 288" fill="none" stroke="#3B2619" stroke-width="4" stroke-linejoin="round" stroke-linecap="round"/><path d="M 246 283 L 250 292 L 254 281 Z" fill="#FFFFFF" stroke="#3B2619" stroke-width="2" stroke-linejoin="round" stroke-linecap="round"/><ellipse cx="168" cy="262" rx="18" ry="10" fill="#E8968A" opacity="0.45"/><ellipse cx="344" cy="262" rx="18" ry="10" fill="#E8968A" opacity="0.45"/>

  <!-- 기분 -->
  <path d="M 410.8 125.0 Q 405.3 132.0 410.8 139.0" fill="none" stroke="#E0585B" stroke-width="5" stroke-linejoin="round" stroke-linecap="round"/><path d="M 403.0 146.8 Q 396.0 141.3 389.0 146.8" fill="none" stroke="#E0585B" stroke-width="5" stroke-linejoin="round" stroke-linecap="round"/><path d="M 381.2 139.0 Q 386.7 132.0 381.2 125.0" fill="none" stroke="#E0585B" stroke-width="5" stroke-linejoin="round" stroke-linecap="round"/><path d="M 389.0 117.2 Q 396.0 122.7 403.0 117.2" fill="none" stroke="#E0585B" stroke-width="5" stroke-linejoin="round" stroke-linecap="round"/>
</svg>
