<svg xmlns="http://www.w3.org/2000/svg" viewBox="0 0 64 64" width="64" height="64">
  <!-- 8. 온유 · 찻잎 - 호지차 (볶아낸 찻잎과 줄기) -->
  <path d="M 26 18 C 22 13 28 9 24 4 M 36 18 C 32 13 38 9 34 4" fill="none" stroke="#C9B39A" stroke-width="2.4" stroke-linecap="round" opacity="0.8"/>
  <ellipse cx="32" cy="55" rx="24" ry="4.5" fill="#2A160F" opacity="0.3"/>
  <g stroke="#5A3418" stroke-width="2" stroke-linejoin="round">
    <path d="M 7 47 C 12 36 24 34 28 41 C 23 47 15 50 7 47 Z" fill="#A0673F"/>
    <path d="M 26 50 C 28 38 41 35 45 43 C 40 49 33 52 26 50 Z" fill="#B57A4B"/>
    <path d="M 40 46 C 44 36 55 35 58 42 C 53 47 47 49 40 46 Z" fill="#8E5733"/>
    <path d="M 17 38 C 21 29 32 28 34 34 C 29 39 23 40 17 38 Z" fill="#C08856"/>
  </g>
  <g stroke-width="3" stroke-linecap="round">
    <path d="M 12 52 L 30 44" stroke="#D9B07A"/><path d="M 34 52 L 52 47" stroke="#CDA36E"/><path d="M 38 32 L 50 36" stroke="#D9B07A"/>
  </g>
  <g fill="none" stroke="#E2B98A" stroke-width="1.4" stroke-linecap="round" opacity="0.8">
    <path d="M 10 45 C 15 41 19 40 24 41"/><path d="M 29 48 C 33 44 37 43 41 44"/><path d="M 20 36 C 24 33 28 32 31 33"/>
  </g>
</svg>
