<svg xmlns="http://www.w3.org/2000/svg" viewBox="0 0 64 64" width="64" height="64">
  <!-- 9. 절제 · 과일 - 레몬 -->
  <path d="M 8 38 C 6 34 9 30 12 29 C 16 18 28 13 38 15 C 47 17 54 24 55 31 C 58 33 60 37 57 41 C 52 50 38 55 26 52 C 17 50 10 45 8 38 Z"
        fill="#F2D64B" stroke="#A88A14" stroke-width="2.4" stroke-linejoin="round"/>
  <path d="M 17 28 C 20 23 26 20 31 20" fill="none" stroke="#FFF3B8" stroke-width="2.6" stroke-linecap="round" opacity="0.9"/>
  <g fill="#D9B92C" opacity="0.6"><circle cx="24" cy="36" r="1"/><circle cx="34" cy="40" r="1"/><circle cx="42" cy="32" r="1"/><circle cx="30" cy="46" r="1"/><circle cx="44" cy="44" r="1"/></g>
  <path d="M 38 15 C 40 9 47 5 54 6 C 52 13 45 16 38 15 Z" fill="#7DB35F" stroke="#4E7A3A" stroke-width="2" stroke-linejoin="round"/>
  <path d="M 39 14 C 44 11 48 9 52 8" fill="none" stroke="#4E7A3A" stroke-width="1.4" stroke-linecap="round"/>
</svg>
