<svg xmlns="http://www.w3.org/2000/svg" viewBox="0 0 64 64" width="64" height="64">
  <!-- 7. 충성 · 과일 - 석류 -->
  <path d="M 25 12 L 23 5 L 28 9 L 32 3 L 36 9 L 41 5 L 39 12 Z" fill="#B0283E" stroke="#6E1424" stroke-width="2" stroke-linejoin="round"/>
  <circle cx="32" cy="36" r="23" fill="#C8324A" stroke="#6E1424" stroke-width="2.4"/>
  <ellipse cx="22" cy="26" rx="5" ry="7" fill="#F08A9A" opacity="0.55" transform="rotate(30 22 26)"/>
  <path d="M 20 52 C 30 58 44 54 50 44" fill="none" stroke="#9E1E34" stroke-width="2" stroke-linecap="round" opacity="0.7"/>
  <g transform="translate(40 40)">
    <path d="M -10 -10 C 2 -14 12 -6 12 4 C 12 12 4 16 -4 14 Z" fill="#FBE6D6" stroke="#6E1424" stroke-width="1.8" stroke-linejoin="round"/>
    <g fill="#E0314F" stroke="#9E1E34" stroke-width="0.8">
      <circle cx="-3" cy="-6" r="2.4"/><circle cx="3" cy="-5" r="2.4"/><circle cx="8" cy="-1" r="2.4"/><circle cx="0" cy="0" r="2.4"/>
      <circle cx="6" cy="5" r="2.4"/><circle cx="-1" cy="6" r="2.4"/><circle cx="4" cy="10" r="2.2"/><circle cx="-6" cy="2" r="2.2"/>
    </g>
  </g>
</svg>
